<?xml version="1.0" encoding="utf-8"?>
<!-- Generator: Adobe Illustrator 19.2.0, SVG Export Plug-In . SVG Version: 6.00 Build 0)  -->
<svg version="1.1" id="Ebene_1" xmlns="http://www.w3.org/2000/svg" xmlns:xlink="http://www.w3.org/1999/xlink" x="0px" y="0px"
	 viewBox="0 0 141.7 141.7" style="enable-background:new 0 0 141.7 141.7;" xml:space="preserve">
<style type="text/css">
	.st0{fill:#DD3BAE;}
	.st1{fill:#010000;}
</style>
<g>
	<ellipse class="st0" cx="70.9" cy="70.9" rx="64.1" ry="64.6"/>
</g>
<path class="st1" d="M91.1,89.9h26.3c5.6,0,10-4.5,10-10c0-3.4-1.7-6.4-4.3-8.2h4.3V53.5h-26.4c-5.5,0-10,4.5-10,10
	c0,3.4,1.7,6.3,4.3,8.2h-4.3V89.9z"/>
<path class="st1" d="M53.9,89.9h26.3c5.6,0,10-4.5,10-10c0-3.4-1.7-6.4-4.3-8.2h4.3V53.5H63.8c-5.5,0-10,4.5-10,10
	c0,3.4,1.7,6.3,4.3,8.2h-4.3V89.9z"/>
<path class="st1" d="M16.6,89.9h26.3c5.6,0,10-4.5,10-10c0-3.4-1.7-6.4-4.3-8.2h4.3V53.5H26.6c-5.5,0-10,4.5-10,10
	c0,3.4,1.7,6.3,4.3,8.2h-4.3V89.9z"/>
</svg>
